<svg width="95" height="50" viewBox="0 0 95 50" fill="none" xmlns="http://www.w3.org/2000/svg">
<g id="Group 3">
<g id="Group 2">
<path id="Vector 4" d="M35.3866 3.61917C45.9501 10.8108 48.6785 33.5212 48.6785 33.5212C48.6785 33.5212 16.8311 40.2248 6.75382 27.0778C0.940884 19.4942 0.85829 3.33111 0.85829 3.33111C0.85829 3.33111 24.2399 -3.9694 35.3866 3.61917Z" fill="#59E031"/>
<path id="Vector 3" d="M35.5644 4.35889C46.4869 11.7834 49.4868 35.4965 49.4868 35.4965C49.4868 35.4965 16.8009 42.7807 6.32737 29.1274C0.285847 21.2518 0.0622902 4.35889 0.0622902 4.35889C0.0622902 4.35889 24.0391 -3.47546 35.5644 4.35889Z" fill="#6EE014"/>
<path id="Vector 5" d="M49.1483 35.4065C39.3311 24.2352 29.1754 19.4958 19.6967 17.1262" stroke="#B4F077" stroke-width="0.677049"/>
</g>
<g id="Group 1">
<path id="Vector 4_2" d="M58.8478 15.129C48.2842 22.3206 45.5558 45.0311 45.5558 45.0311C45.5558 45.0311 77.4032 51.7346 87.4805 38.5876C93.2934 31.004 93.376 14.8409 93.376 14.8409C93.376 14.8409 69.9944 7.54043 58.8478 15.129Z" fill="#11C869"/>
<path id="Vector 1" d="M58.8478 17.8372C48.2842 25.0288 45.5558 47.7393 45.5558 47.7393C45.5558 47.7393 77.4032 54.4428 87.4805 41.2958C93.2934 33.7122 93.376 17.5491 93.376 17.5491C93.376 17.5491 69.9944 10.2486 58.8478 17.8372Z" fill="#06B85B"/>
<path id="Vector 3_2" d="M58.6699 15.8687C47.7475 23.2932 44.7475 47.0063 44.7475 47.0063C44.7475 47.0063 77.4334 54.2905 87.907 40.6373C93.9485 32.7616 94.172 15.8687 94.172 15.8687C94.172 15.8687 70.1952 8.03436 58.6699 15.8687Z" fill="#22E07E"/>
<path id="Vector 5_2" d="M45.086 46.9163C54.9032 35.745 65.0589 31.0057 74.5376 28.636" stroke="#61FFAE" stroke-width="0.677049"/>
</g>
</g>
</svg>
